<svg width="611" height="611" viewBox="0 0 611 611" fill="none" xmlns="http://www.w3.org/2000/svg">
<rect width="611" height="611" fill="white"/>
<path d="M240.133 206H288.375V335.004C288.375 349.913 284.827 362.901 277.73 373.969C270.634 384.971 260.738 393.5 248.043 399.555C235.348 405.544 220.602 408.539 203.805 408.539C186.813 408.539 171.969 405.544 159.273 399.555C146.578 393.5 136.715 384.971 129.684 373.969C122.652 362.901 119.137 349.913 119.137 335.004V206H167.477V330.805C167.477 337.706 168.974 343.858 171.969 349.262C175.029 354.665 179.293 358.897 184.762 361.957C190.23 365.017 196.578 366.547 203.805 366.547C211.031 366.547 217.346 365.017 222.75 361.957C228.219 358.897 232.483 354.665 235.543 349.262C238.603 343.858 240.133 337.706 240.133 330.805V206ZM367.599 206L404.122 269.184H405.685L442.599 206H496.7L436.349 306L498.653 406H443.185L405.685 342.133H404.122L366.622 406H311.544L373.556 306L313.106 206H367.599Z" fill="#44C2F8"/>
</svg>
